<svg width="24" height="19" viewBox="0 0 24 19" fill="none" xmlns="http://www.w3.org/2000/svg">
<path d="M3.5 5C3.5 3.67392 4.02678 2.40215 4.96447 1.46447C5.90215 0.526784 7.17392 0 8.5 0C9.82608 0 11.0979 0.526784 12.0355 1.46447C12.9732 2.40215 13.5 3.67392 13.5 5C13.5 6.32608 12.9732 7.59785 12.0355 8.53553C11.0979 9.47322 9.82608 10 8.5 10C7.17392 10 5.90215 9.47322 4.96447 8.53553C4.02678 7.59785 3.5 6.32608 3.5 5ZM5 12C3.67392 12 2.40215 12.5268 1.46447 13.4645C0.526784 14.4021 0 15.6739 0 17L0 19H17V17C17 15.6739 16.4732 14.4021 15.5355 13.4645C14.5979 12.5268 13.3261 12 12 12H5ZM24 19H19V17C19 15.041 18.196 13.27 16.9 12H19C19.6566 12 20.3068 12.1293 20.9134 12.3806C21.52 12.6319 22.0712 13.0002 22.5355 13.4645C22.9998 13.9288 23.3681 14.48 23.6194 15.0866C23.8707 15.6932 24 16.3434 24 17V19ZM15.5 10C14.8896 10.0003 14.2843 9.88877 13.714 9.671C14.8666 8.38852 15.5029 6.72432 15.5 5C15.5027 3.27555 14.866 1.61133 13.713 0.329C14.398 0.0673973 15.1322 -0.0403227 15.8636 0.0134749C16.5949 0.0672726 17.3054 0.281271 17.9448 0.640302C18.5842 0.999334 19.1368 1.49461 19.5634 2.09102C19.99 2.68744 20.2803 3.3704 20.4135 4.09148C20.5468 4.81257 20.5198 5.55414 20.3344 6.26364C20.1491 6.97313 19.81 7.63317 19.3411 8.19699C18.8723 8.7608 18.2851 9.21458 17.6213 9.52617C16.9575 9.83776 16.2333 9.99952 15.5 10Z" fill="black"/>
</svg>
